<svg width="368" height="36" viewBox="0 0 368 36" fill="none" xmlns="http://www.w3.org/2000/svg">
<path d="M87 18L54.5 0.5V17.75V35L87 18Z" fill="#00B3FF"/>
<path d="M0.36 35V0.679998H8.04V35H0.36ZM94.7663 35V0.679998H131.438V6.92H102.446V16.424H127.694V22.664H102.446V35H94.7663ZM154.047 35.24C147.935 35.24 143.199 33.784 139.839 30.872C136.479 27.928 134.799 23.576 134.799 17.816C134.799 12.088 136.479 7.768 139.839 4.856C143.199 1.912 148.047 0.439999 154.383 0.439999H163.023C169.359 0.439999 174.207 1.912 177.567 4.856C180.927 7.768 182.607 12.088 182.607 17.816C182.607 23.576 180.927 27.928 177.567 30.872C174.207 33.784 169.439 35.24 163.263 35.24H154.047ZM154.911 6.68C151.359 6.68 148.591 7.32 146.607 8.6C144.623 9.88 143.375 11.912 142.863 14.696H174.543C174.031 11.912 172.783 9.88 170.799 8.6C168.815 7.32 166.047 6.68 162.495 6.68H154.911ZM155.055 29H162.495C166.079 29 168.847 28.36 170.799 27.08C172.783 25.8 174.031 23.752 174.543 20.936H142.863C143.375 23.752 144.623 25.8 146.607 27.08C148.591 28.36 151.407 29 155.055 29ZM187.391 35V0.679998H195.167L219.455 25.352V0.679998H227.135V35H219.359L195.071 10.28V35H187.391ZM233.844 35V0.679998H271.476V6.92H241.524V14.504H268.692V20.744H241.524V28.76H271.476V35H233.844ZM279.615 35L275.775 0.679998H283.455L286.287 25.736L295.839 18.392V0.679998H303.519V18.44L312.975 25.736L315.855 0.679998H323.535L319.695 35H313.263L299.679 24.008L286.047 35H279.615ZM328.178 35.24V29L355.778 29.048C357.186 29.048 358.258 28.728 358.994 28.088C359.762 27.416 360.146 26.344 360.146 24.872C360.146 23.4 359.762 22.344 358.994 21.704C358.258 21.032 357.186 20.696 355.778 20.696H338.594C335.042 20.696 332.274 19.848 330.29 18.152C328.338 16.424 327.362 13.896 327.362 10.568C327.362 7.24 328.338 4.728 330.29 3.032C332.274 1.304 335.042 0.439999 338.594 0.439999H365.57V6.68L339.41 6.632C338.034 6.632 336.962 6.952 336.194 7.592C335.426 8.2 335.042 9.192 335.042 10.568C335.042 11.944 335.426 12.952 336.194 13.592C336.962 14.2 338.034 14.504 339.41 14.504H356.594C360.146 14.504 362.898 15.384 364.85 17.144C366.834 18.872 367.826 21.448 367.826 24.872C367.826 28.264 366.834 30.84 364.85 32.6C362.898 34.36 360.146 35.24 356.594 35.24H328.178Z" fill="white"/>
<path d="M14.7506 35V0.679998H22.5266L46.8146 25.352V0.679998H54.4946V35H46.7186L22.4306 10.28V35H14.7506Z" fill="#00B3FF"/>
</svg>
